<svg version="1.1" class="home-icon-svg" xmlns="http://www.w3.org/2000/svg" xmlns:xlink="http://www.w3.org/1999/xlink" x="0px" y="0px" width="24px" height="22px" viewBox="0 0 16 16" enable-background="new 0 0 16 16" xml:space="preserve">
	<path fill-rule="evenodd" clip-rule="evenodd" fill="#C2C2C2"
   d="m 15.384056,7.3679206 c -0.144241,0.2523118 -0.392001,0.3911459 -0.64585,0.3911459 -0.13739,0 -0.277445,-0.040736 -0.403037,-0.1263639 L 7.9999834,3.311805 1.6647984,7.6331182 C 1.3078115,7.8767014 0.83817182,7.7578195 0.61591119,7.3683361 0.39289025,6.9788526 0.50135525,6.4659149 0.85834307,6.2227475 L 7.596946,1.6262601 c 0.2462371,-0.1683468 0.5598377,-0.1683468 0.8064555,0 l 6.7389835,4.5964874 c 0.356226,0.2435831 0.464693,0.7556894 0.241671,1.1451731 z M 12.933101,7.8160134 8.4037821,4.7263326 c -0.2466178,-0.1683466 -0.5602183,-0.1683466 -0.8064555,0 L 3.0676273,7.8160134 C 2.8449862,7.9677333 2.7102599,8.2341781 2.7102599,8.520991 v 5.147667 c 0,0.458901 0.3410024,0.831342 0.7611661,0.831342 h 2.4992887 c 0.4201637,0 0.7611661,-0.372441 0.7611661,-0.831342 v -2.343551 c 0,-0.764004 0.5693522,-1.385016 1.2688638,-1.385016 0.6995116,0 1.2688638,0.621844 1.2688638,1.385016 v 2.343135 c 0,0.458901 0.3410023,0.831342 0.7611666,0.831342 h 2.499289 c 0.420163,0 0.761166,-0.372441 0.761166,-0.831342 V 8.520991 C 13.290849,8.2337625 13.155742,7.9673175 12.933101,7.8160134 z"/>
</svg>
